<svg xmlns="http://www.w3.org/2000/svg" viewBox="0 0 512 512">
  <defs>
    <linearGradient id="neon" x1="0%" y1="0%" x2="100%" y2="100%">
      <stop offset="0%" style="stop-color:#00f2ff;stop-opacity:1" />
      <stop offset="100%" style="stop-color:#ff00ff;stop-opacity:1" />
    </linearGradient>
    <filter id="glow" x="-50%" y="-50%" width="200%" height="200%">
      <feGaussianBlur stdDeviation="15" result="coloredBlur"/>
      <feMerge>
        <feMergeNode in="coloredBlur"/>
        <feMergeNode in="SourceGraphic"/>
      </feMerge>
    </filter>
  </defs>
  <rect width="512" height="512" rx="100" fill="#1e1e24"/>
  <path d="M400 32H192C174.3 32 160 46.3 160 64v268.8c-14.7-6-30.8-9.8-48-9.8-53 0-96 28.7-96 64s43 64 96 64c52.6 0 95.3-28.2 96-63.3V192h160v138.8c-14.7-6-30.8-9.8-48-9.8-53 0-96 28.7-96 64s43 64 96 64c52.6 0 95.3-28.2 96-63.3V64c0-17.7-14.3-32-32-32z" fill="url(#neon)" filter="url(#glow)"/>
</svg>
